<svg xmlns="http://www.w3.org/2000/svg" xml:space="preserve" viewBox="0 0 512 512">
  <title>Cupcake Logo</title>
  <style type="text/css">
      .fill { fill: #000; }
      @media (prefers-color-scheme: dark) {
        .fill { fill: #fff; }
      }
  </style>
  <path d="m351.819 409.538-17.704 14.555a3.101 3.101 0 0 1-3.937-4.789l16.98-13.958-1.866-1.679c-3.722-3.348-4.026-9.087-.678-12.81l17.812-19.802c2.667-2.965 6.853-3.761 10.327-2.268l-4.054 5.502a2.85 2.85 0 0 0-1.664.912l-17.812 19.802a2.873 2.873 0 0 0 .215 4.056l2.563 2.305 4.66-3.831a3.1 3.1 0 0 1 3.936 4.788l-3.935 3.236 1.58 1.421a2.87 2.87 0 0 0 4.055-.215l17.812-19.802a2.874 2.874 0 0 0-.214-4.056l-.261-.234 3.695-5.014.711.64c3.722 3.348 4.026 9.088.678 12.81l-17.812 19.802c-3.348 3.722-9.088 4.026-12.81.678zM120.624 306.871c14.247-20.574 27.375-40.62 39.736-79.481 4.131-12.991 5.41-23.914 3.395-30.424-2.932-9.475-8.661-21.011-10.118-23.11-5.912-8.514-4.818-24.001-3.415-35.275 5.034-40.465 16.725-53.913 21.833-60.548 7.036-9.142 29.078-29.666 31.864-31.962 1.584-1.306 19.286-15.897 20.177-15.858 2.79.122.874 16.136 2.195 22.26.718 3.329 1.182 9.535 5.453 19.72 1.18 2.813 2.65 5.929 4.496 9.372 3.694 6.89 6.986 4.085 22.448 4.547 8.601.257 67.949-.681 69.826-3.47 1.844-2.739 4.859-11.216 6.653-20.566 1.059-5.516 1.693-11.336 1.412-16.462-.214-3.909-1.474-11.348.475-11.278 1.019.037 11.184 6.445 21.06 20.442 21.689 30.74 14.867 50.987 23.21 60.225 6.375 7.06 23.419 31.698 30.989 53.867 3.154 9.235-.184 24.597 1.83 29.677 6.851 17.28 16.115 36.758 2.237 73.742-2.029 5.405 4.431 16.096-.597 37.192-7.53 31.592-9.884 35.593-19.541 34.677-4.656-.441-1.228 9.604-12.513 14.169-1.927.779-4.726 1.382-5.351 1.495-3.434.621-4.446 2.548-4.046 5.519-4.941-2.163-10.92-1.046-14.722 3.181l-17.812 19.802c-4.321 4.803-4.352 11.977-.342 16.805l-2.155 1.772c-4.069-3.386-9.991-4.028-14.799-1.172l-22.898 13.604c-4.473 2.658-6.747 7.611-6.214 12.47l-4.304.854c-1.446-4.94-5.8-8.734-11.233-9.205l-26.535-2.304c-5.447-.472-10.4 2.53-12.668 7.166l-5.12-1.706c.867-5.078-1.386-10.4-6.069-13.205l-22.848-13.687c-5.51-3.3-12.507-1.99-16.49 2.801L185.807 399c3.655-4.712 3.638-11.502-.382-16.218l-17.278-20.269c-4.132-4.848-11.099-5.866-16.388-2.695l-2.553-3.695c5.278-3.842 6.886-11.145 3.515-16.894l-13.472-22.976c-3.384-5.772-10.586-7.93-16.529-5.15zm69.67-200.687c-5.675 3.411-12.027-1.849-8.809 2.04.095.115 5.219 2.945 7.824 6.533 1.717 2.364 2.478 1.203 4.207-1.136a79 79 0 0 0 2.732-3.935l.022-.033a75 75 0 0 0 2.15-3.528 66 66 0 0 0 2.383-4.578 61.377 61.377 0 0 0 3.152-8.102 64 64 0 0 0 1.681-6.725c.863-4.448 1.192-8.497 1.483-12.118q.087-1.096.176-2.139c.131-1.526.49-1.455.707-13.06.005-.295.147-7.911-1.526-3.352-.039.105.122 5.085-3.355 18.943-.639 2.545-1.4 5.39-2.308 8.559a100 100 0 0 1-2.368 7.23 86 86 0 0 1-1.414 3.556 76 76 0 0 1-1.355 3.015 66 66 0 0 1-1.945 3.775 54 54 0 0 1-1.754 2.919l-.017.027a42 42 0 0 1-1.149 1.681l-.131.182a8 8 0 0 1-.386.246m52.647 103.726c-5.669-4.943-5.797-5.733-6.53-6.483-3.371-3.448-1.504 2.481 4.301 8.785 6.727 7.304 19.616 8.5 18.344 6.36-1.095-1.845-2.725.631-16.115-8.662m21.415-23.364c2.934 1.478 3.448-2.566 1.077-2.293-1.64.189-1.523.721-1.077 2.293m-15.738 168.795c-18.744-13.81-11.946-28.481-21.387-39.439-1.08-1.253-5.901-4.398-6.597-4.446-3.223-.221 3.225 2.879 6.562 13.883.247.813 2.366 7.802 2.622 10.28.172 1.677-.786.76-2.378.3-2.278-.658-12.698-2.211-25.912-9.602-36.24-20.271-41.661-65.367-41.811-65.492-2.298-1.92-.926 12.914.516 19.627 5.231 24.349 8.659 28.28 16.139 37.338 9.926 12.02 19.656 18.889 51.075 27.645 6.481 1.806 5.778 3.201 10.074 8.329 9.37 11.186 14.146 9.458 17.502 13.951 2.277 3.049 2.076 4.961 2.151 18.617.031 5.547-.411 9.732 1.67 6.048 3.264-5.616 3.52-5.568 5.972-16.809.625-2.864-3.611-5.912-.103-5.489 18.228 2.198 30.435-8.258 46.129-9.974 4.017-.439 6.711-1.53 9.075-1.39 2.255.133-1.522 3.378-1.68 3.539-11.605 11.819 4.908-.475 7.017.398 2.248.931-9.694 26.932-11.186 29.319-.931 1.487.932 1.787 1.689.166 1.836-3.938 9.062-10.947 18.847-28.108 2.943-5.161 3.358-4.836 6.333-9.952 1.801-3.096-11.363-.423-21.829-.155-7.319.187-7.197 1.114-14.462 1.35-11.964.389-32.98 15.083-53.224 1.999a56 56 0 0 1-2.804-1.933m-69.78-242.668a11 11 0 0 0-.264-.151c-4.59-2.565-1.036 1.889.749 6.797 1.222 3.36-1.22 5.865 1.83 5.177.457-.427.951-.814 1.407-1.241.746-.698 1.158-1.593 1.268-2.581.154-1.385-.284-2.955-1.222-4.426-.86-1.347-2.139-2.611-3.768-3.575m168.33-51.771c-.159.915-.201 1.821-.208 1.968-.973 21.109 2.024 23.955 5.844 26.271 9.175 5.562-2.901-4.534-3.719-28.427-.259-1.418-.082-1.535-.508-1.774-.792-.444-1.201.766-1.409 1.962m-83.834 118.683c.348.018 7.687.409 4.217-1.124-10.856-4.797-28.965 7.658-25.714 8.537.875.236.855-.034 10.507-4.251 6.209-2.714 8.386-2.628 10.99-3.162m41.683 15.93c-1.576 1.367-2.691 1.226-1.763 2.358.164.2 8.845-1.334 11.972-11.665.095-.314 1.574-5.203-.169-4.093-.114.072-4.613 8.151-10.04 13.4m80.401 57.035c-1.764 1.835-1.875 6.061-1.889 6.595-.376 14.329 13.605 8.628 14.128 3.416-1.067.279-1.038.231-2.106.551-4.646 1.393-7.681-.364-7.831-2.549-.172-2.517.006-4.555.112-6.038.151-2.099.161-3.085-1.163-2.735a2.7 2.7 0 0 0-1.251.76m-49.92-.366c-1.081 1.038 2.201 10.09 7.214 13.621 22.362 15.752 29.831-11.354 21.972-14.454-4.188-1.652-3.149 4.275-3.284 7.127-.422 8.918-18.529 9.74-24.737-5.053-.334-1.036-.69-1.697-1.165-1.241m1.871 81.002c-5.331 5.046-5.063 5.254-10.45 10.211-6.916 6.363 24.349-1.033 24.575-.896 1.628.988-3.164 4.043-12.396 5.481-1.689.263-1.029 1.691.674 1.582 13.026-.83 26.685 1.102 36.361-4.528 4.591-2.671 8.286-7.044 10.591-14.222.394-1.229.804-6.108-.667-6.546-5.546-1.65-15.939-3.273-26.826-1.346-7.532 1.333-15.3 4.366-21.862 10.264m-93.398-144.154c-1.96.005-4.153.563-4.429.865-1.035 1.133 7.841 9.979 9.525 11.094a24.6 24.6 0 0 0 4.075 2.195c5.998 2.515 11.318 1.694 14.995.555 1.876-.58 3.324-1.243 4.218-1.588 8.705-3.362 10.319.618 11.469-1.016.864-1.227-4.015-2.8-5.873-3.626-4.532-2.015-5.73.539-9.806.692-1.557.059-2.95.075-4.199.055-9.412-.156-10.72-2.396-13.389-4.195-3.32-3.084-3.093-3.673-3.868-4.356-.569-.502-1.606-.677-2.718-.675m39.63 61.166c-3.059 7.935-5.407 16.646-6.618 25.481-.223 1.629 1.013 1.703 1.416.627 5.011-13.398 9.74-14.606 9.975-11.682 1.155 14.396-8.237 25.289 8.561 34.701 6.982 3.913-3.481 2.171-8.196-.767-4.054-2.526-.489 6.225.225 7.334 6.483 10.066 15.42 10.086 21.817 10.613.036.385.535.625.571 1.01.049.527-7.748 1.328-10.139.921-8.777-1.495-10.813-2.906-9.899-.688 2.867 6.959 17.032 20.407 38.953 9.865a26 26 0 0 0 2.574-1.414c5.45-3.419 7.75-7.885 17.151-15.364 2.328-1.853 5.091-3.89 8.445-6.141.144-.096 2.328-1.563 2.154-.084-.041.351-5.279 4.482-9.224 8.024-3.336 2.995-5.747 5.569-3.307 5.079.796-.161 1.329-1.05 4.686-3.275 2.284-1.514 5.877-3.646 11.75-6.587 5.446-2.728 3.94-4.082 5.132-10.096.058-.292.242-6.241-.008-7.664-1.103-6.266-21.029-2.272-33.156-26.87-1.979-4.014-3.423-9.783-3.733-13.986-.618-8.346 9.031-18.832 25.526-20.913 15.131-1.909 29.705 2.311 36.514 12.76 5.391 8.274 5.674 14.718 4.643 20.801-2.395 14.127-11.916 20.058-13.667 21.039-3.166 1.773-10.672 4.485-11.075 7.148-.955 6.301-.572 6.305-1.346 13.123-.564 4.959 2.582 3.218 11.162 10.548.785.67 1.865.031.66-1.497-.611-.776-6.202-7.115-3.378-6.113.747.265 7.511 6.309 11.442 13.112 7.435 12.866 4.305 20.751 9.081 17.464 4.094-2.818 8.915-22.714 10.282-27.264.001-.005 4.984-16.049-3.489-46.12-.395-1.4-2.908-9.438-2.848-9.623.594-1.836 2.063 1.287 2.152 1.476 1.331 2.829 4.4 9.668 5.066 9.718 2.384.182 7.407-22.924 5.704-32.646-.902-5.149-.483-9.142-4.554-20.545-.002-.005-2.503-8.475-3.547-6.134-.725 1.625-1.499 14.742-10.565 24.175-3.527 3.669.194-2.872.317-3.088 5.219-9.174 10.689-40.104 8.426-52.207-1.44-7.696-3.384-14.825-12.059-29.792-4.47-7.71-17.672-25.135-20.406-28.306-2.818-3.267-20.019-27.136-46.625-27.984-14.736-.469-28.594-.11-35.891 3.636-5.977 3.068-1.26 5.415 3.214 13.027 1.619 2.755 2.954 4.822 4.134 6.516 3.987 5.725 6.204 7.198 11.599 16.571 4.853 8.431 7.527 15.703 8.975 22.446 2.206 10.274 1.567 19.322 1.45 29.374-.179 15.527 5.44 21.466 3.206 24.695-.337.488-.853.913-1.595 1.301-10.809 5.647-12.702 5.099-21.139 12.795-.954.871-1.992 1.846-3.136 2.948-3.302 3.182-6.568 7.44-9.593 12.463-2.863 4.755-5.51 10.195-7.77 16.059m96.554-85.322c-.586 3.339-3.621 8.403-1.155 7.275 2.415-1.105 4.065-3.066 3.617-.447-.12.7-.73.27-5.938 6.594-8.008 9.726-1.876-13.648 3.476-13.422m-37.256 1.275c-.13-3.067-.426-3.179.107-3.712 2.157-2.156-.648 3.831 9.054 18.949 3.288 5.123-8.093-.167-9.161-15.237m11.22-9.209c-.789-.363-1.184-.249-.922-1.086 3.259-10.448 19.277-11.248 13.32-8.481-1.014.471-2.117.734-3.131 1.205-5.185 2.413-9.259 8.354-9.267 8.362m42.524 78.335c-1.619-1.95-12.23-14.729-21.239-23.504-10.674-10.397 5.745 1.894 7.524 3.567 12.796 12.043 13.492 15.229 16.303 21.026 4.594 9.478-2.462-.903-2.588-1.089m-21.387-44.126c5.471-9.345 8.561-11.761 16.184-11.613 8.053.155 11.511 5.946 11.445 6.589-.319 3.122-3.941-1.555-4.925 1.459-4.506 13.809-17.313 7.865-20.952 8.476-.935.157-1.845.465-2.789.56-2.334.235.811-5.088 1.037-5.471m11.723-6.727q0 .167.015.371c.212 2.832 3.119-.981 3.49.673.067.3-1.188 2.421-1.308 2.623-3.305 5.583-7.824-1.573-9.582 2.096-2.305 4.813 4.442 3.949 6.335 3.919 6.369-.101 7.937-5.778 7.951-5.935.462-5.493-1.406-5.151-4.486-5.133-1.638.301-2.416-.004-2.415 1.386m-208.985 42.217c-2.247 4.141-2.975 8.19-3.137 9.088-.86 4.783 3.229-2.234 3.399-2.527 2.535-3.61 2.583-3.563 2.793-3.883 2.786-4.241 5.495-11.582 2.472-9.301-2.458 1.856-4.241 4.255-5.527 6.623m202.781 124.468c-2.376 2.382-6.061 4.705-3.123 4.776.553.013 5.588-1.647 6.035-1.972 6.919-5.04 8.078-15.046 5.169-11.277-3.596 4.658-4.228 4.042-8.081 8.473M359.72 235.397c-.712.177-10.853 2.69-8.123 4.271 2.039 1.181 23.367-6.775 8.123-4.271m-126.711-63.284c-8.369 6.394-19.267 16.801-9.592 17.917 9.026 1.04 11.674-5.537 14.5-10.342.464-.79.934-1.532 1.437-2.184q.353-.46.733-.855a30 30 0 0 1 4.462-3.769l.092-.063a36.7 36.7 0 0 1 5.425-3.071 45 45 0 0 1 5.958-2.243 50 50 0 0 1 8.742-1.793c1.714-.195 1.743-1.635.757-1.858-4.212-.951-9.365-.644-13.103-.188a66 66 0 0 0-4.87.774c-.517.101-1.065.25-1.63.433-1.838.596-3.848 1.552-5.507 2.425l-.094.05c-1.706.901-3.024 1.706-3.374 1.919-.661.449-1.383.956-2.144 1.51-.577.421-1.178.869-1.792 1.338m21.342 13.591a9 9 0 0 0-1.149.724c-1.603 1.17-1.257 7.532 8.573 8.989l.194.028c.937.001 12.319.011 11.074-3.822-.144-.441-2.384-7.34-4.129-4.066-2.703 5.069-10.477 5.187-11.55-.778-.051-.286-.421-2.341-2.898-1.133zm45.735-2.95c-.811 1.711-1.234 2.722-.27 2.449.383-.109 1.003-.547 1.731-1.254 4.157-4.032 11.821-16.785-1.15-26.559-4.522-3.408-11.712-4.077-11.324-2.959.089.258.582.612 1.606 1.049 2.361.964 13.763 4.538 12.281 18.939-.321 3.115-1.886 6.246-2.874 8.335m73.703 102.792a25 25 0 0 0 1.973-5.694c.176-.817.764-9.061-.109-9.127-2.609-.197.133 1.939-3.221 13.947-.305 1.09.288 2.676 1.357.874M172.503 89.248c-1.79 3.005-3.369 5.997-4.608 8.863-12.043 27.854-7.496 35.617-6.042 43.999.47 2.703 2.305.95 2.454.807 4.5-4.3 7.703-6.787 10.006-8.382 3.419-2.368 4.856-2.771 5.608-4.219 1.147-2.211-2.148.132-5.729 1.206-1.066.32-2.157.527-3.164.468-3.69-.217-4.838-11.248 2.014-29.254a122 122 0 0 1 2.614-6.313q.444-.996.92-2.016a147 147 0 0 1 2.626-5.342l.094-.182.043-.083.158-.303.226-.431.006-.012.326-.616.3-.561a158 158 0 0 1 2.112-3.814 183 183 0 0 1 3.849-6.425c3.386-5.401 7.33-11.093 11.901-17.026.964-1.119 1.002-1.063 1.233-1.536 1.61-3.301-2.631.123-8.632 6.745a175 175 0 0 0-12.061 14.946q-.4.556-.797 1.119l-.482.687-.396.571c-.166.24-2.247 3.35-2.75 4.138q-.255.4-.505.8-.68 1.083-1.324 2.166m85.185 259.778c6.854 3.055 15.985 2.467 16.272 1.853.825-1.768-7.538-2.225-14.087-4.892-6.752-2.751-11.02-5.031-9.999-2.933.011.022 2.838 3.78 7.814 5.972m-133.287-34.527c4.177-1.904 9.208-.375 11.58 3.67l13.472 22.976c2.361 4.027 1.259 9.134-2.401 11.859l-3.531-5.111a2.875 2.875 0 0 0 .584-3.613l-13.472-22.976a2.87 2.87 0 0 0-3.476-1.24zm6.212 14.261 7.713 13.154a6.89 6.89 0 0 0-9.448 3.674l-5.915-10.088a6.85 6.85 0 0 0 3.82-.672 6.89 6.89 0 0 0 3.83-6.068m-15.201-1.373a2.87 2.87 0 0 0 .052 2.812l13.471 22.976a2.87 2.87 0 0 0 2.473 1.419l3.73 5.4c-4.171 1.883-9.184.353-11.55-3.683l-13.472-22.976c-2.356-4.018-1.264-9.113 2.377-11.842zm25.708 41.267-.113.097c-5.401 4.604-6.048 12.727-1.444 18.128l17.278 20.269c4.604 5.401 12.727 6.048 18.128 1.444l.393-.334 7.489 6.103c-3.596 6.08-1.607 13.942 4.461 17.576l22.848 13.687c6.089 3.647 13.993 1.665 17.64-4.423l1.322-2.208 9.466 3.154-.217 2.498c-.614 7.07 4.628 13.309 11.699 13.922l26.534 2.304c7.071.613 13.309-4.629 13.923-11.699l.209-2.401 10.924-2.168 1.506 2.534c3.625 6.101 11.522 8.112 17.623 4.487l22.898-13.604c6.101-3.625 8.112-11.522 4.487-17.624l-1.181-1.986 4.716-3.877c5.28 4.608 13.311 4.137 18.014-1.091l16.36-18.189c3.856 12.735 4.711 27.554-6.292 42.15-27.768 36.833-49.177 44.463-104.073 44.383-61.172-.088-121.033-40.602-156.854-73.97-26.072-24.287-35.861-39.495-27.073-55.701 4.55-8.39 8.988-15.713 13.324-22.428a12.8 12.8 0 0 0 1.733 5.564l13.472 22.976c3.473 5.923 10.968 8.04 16.996 4.92zm12.798-5.709c3.703-2.084 8.487-1.329 11.346 2.025l17.278 20.27c2.814 3.301 2.847 8.045.327 11.365l-4.816-3.925a2.875 2.875 0 0 0-.228-3.419l-17.279-20.269a2.87 2.87 0 0 0-3.055-.875zm7.743 13.194 10.952 12.848a6.893 6.893 0 0 0-8.615 5.321l-9.48-11.12a6.883 6.883 0 0 0 7.143-7.049m-14.757.89a2.875 2.875 0 0 0 .26 3.371l17.278 20.269a2.87 2.87 0 0 0 2.772.948l5.161 4.206c-3.809 3.123-9.442 2.632-12.651-1.132l-17.278-20.27c-3.196-3.749-2.805-9.358.84-12.631zm46.156 27.882c2.814-3.355 7.731-4.266 11.606-1.945l22.849 13.687a9.08 9.08 0 0 1 4.36 8.737l-6.402-2.133a2.86 2.86 0 0 0-1.144-1.286l-22.848-13.687a2.876 2.876 0 0 0-3.614.545zm10.199 8.854 12.702 7.609a6.88 6.88 0 0 0-4.564 8.933l-11.25-6.739a6.893 6.893 0 0 0 3.112-9.803m-12.208 7.28a2.87 2.87 0 0 0 1.393 2.325l22.849 13.686a2.873 2.873 0 0 0 3.939-.987l.185-.31 6.024 2.007-.891 1.488c-2.573 4.295-8.148 5.693-12.443 3.12l-22.849-13.686c-4.114-2.465-5.57-7.685-3.423-11.895zm53.239 8.482a9.08 9.08 0 0 1 8.7-4.605l26.535 2.304a9.08 9.08 0 0 1 7.824 6.173l-6.241 1.239a2.87 2.87 0 0 0-2.119-1.237l-26.535-2.303a2.86 2.86 0 0 0-1.903.515zm11.992 5.706 17.233 1.496a6.89 6.89 0 0 0-1.484 9.917l-18.637-1.617a6.87 6.87 0 0 0 3.546-4.027 6.87 6.87 0 0 0-.658-5.769m-7.951 10.159-.01.116a2.875 2.875 0 0 0 2.613 3.11l26.534 2.303a2.874 2.874 0 0 0 3.022-2.116l6.376-1.266-.113 1.305c-.433 4.988-4.833 8.685-9.821 8.253l-26.535-2.304c-4.987-.433-8.685-4.833-8.252-9.821l.139-1.594 5.945 1.981zm64.056-16.441 12.885-7.656a6.882 6.882 0 0 0 7.352 7.274l-14.876 8.838a6.892 6.892 0 0 0-5.361-8.456m42.94-35.07 8.366-9.301a6.87 6.87 0 0 0 2.711 4.435 6.87 6.87 0 0 0 5.736 1.141l-6.937 7.712a6.895 6.895 0 0 0-9.876-3.987m-56.201 37.181a9.08 9.08 0 0 1 4.413-8.472l22.898-13.604a9.08 9.08 0 0 1 9.861.384l-5.547 4.56c-.394.044-.785.17-1.147.385l-22.898 13.604a2.87 2.87 0 0 0-1.349 1.906zm12.993 11.465a2.876 2.876 0 0 0 3.569.511l22.898-13.605a2.873 2.873 0 0 0 1.002-3.935l-.399-.672 4.844-3.983.884 1.488c2.557 4.304 1.139 9.875-3.165 12.432l-22.898 13.604c-4.304 2.557-9.874 1.139-12.431-3.165l-.821-1.382zM109.192 306.292a3.1 3.1 0 0 1 5.555-2.751l11.757 23.739a3.1 3.1 0 0 1-5.556 2.751zm23.55 43.567a3.1 3.1 0 0 1 .789-4.312 3.1 3.1 0 0 1 4.311.789l19.484 28.208a3.1 3.1 0 0 1-5.1 3.523zm36.059 48.165a3.1 3.1 0 0 1-.444-4.361 3.1 3.1 0 0 1 4.361-.444l26.574 21.658a3.1 3.1 0 0 1 .445 4.361 3.1 3.1 0 0 1-4.361.444zm48.1 32.904a3.1 3.1 0 0 1-1.961-3.92 3.1 3.1 0 0 1 3.921-1.961l32.525 10.837a3.1 3.1 0 0 1-1.96 5.881zm61.147 14.499a3.1 3.1 0 0 1-3.644-2.437 3.1 3.1 0 0 1 2.437-3.643l33.627-6.675a3.1 3.1 0 0 1 1.207 6.081zm94.937-60.118a3.1 3.1 0 0 1-4.334.657 3.1 3.1 0 0 1-.657-4.334l13.455-18.261a3.1 3.1 0 0 1 4.99 3.678z" class="fill"/>
</svg>
